<svg xmlns="http://www.w3.org/2000/svg" xmlns:svg="http://www.w3.org/2000/svg" xmlns:xlink="http://www.w3.org/1999/xlink" id="SVGRoot" width="20" height="20" version="1.1" viewBox="0 0 20 20"><defs id="defs4503"><linearGradient id="linearGradient859" x1="10" x2="10" y1="15" y2="-3" gradientTransform="matrix(1.0555552,0,0,1.0555524,-1.0555511,-0.33329005)" gradientUnits="userSpaceOnUse" xlink:href="#linearGradient857"/><linearGradient id="linearGradient857"><stop id="stop853" offset="0" stop-color="gray" stop-opacity="1"/><stop id="stop855" offset="1" stop-color="gray" stop-opacity="1"/></linearGradient></defs><metadata id="metadata4506"/><g id="layer1" transform="translate(0,4)"><path id="path2" fill="#b7bec8" fill-opacity="1" stroke="#ff7f2a" stroke-dasharray="none" stroke-miterlimit="4" stroke-opacity="1" stroke-width=".002" d="m 9.5000011,-3.4989196 c -5.2459793,0 -9.49894567,4.25295931 -9.49894567,9.4989294 0,5.2461862 4.25296637,9.4989352 9.49894567,9.4989352 5.2461939,0 9.4989469,-4.252749 9.4989469,-9.4989352 0,-5.24597009 -4.252753,-9.4989294 -9.4989469,-9.4989294 z m 0,16.6498096 c -3.9492133,0 -7.1508917,-3.2016754 -7.1508917,-7.1508802 0,-3.9492064 3.2016784,-7.1508796 7.1508917,-7.1508796 3.9492129,0 7.1508929,3.2016732 7.1508929,7.1508796 0,3.9492048 -3.20168,7.1508802 -7.1508929,7.1508802 z"/><ellipse id="path4532" cx="9.5" cy="6" fill="#b7bec8" fill-opacity="1" stroke-width="1.152" rx="4.75" ry="4.75"/><ellipse id="path851" cx="9.5" cy="6" fill="none" fill-opacity="1" stroke="url(#linearGradient859)" stroke-dasharray="none" stroke-miterlimit="4" stroke-opacity="1" stroke-width="0" opacity="1" rx="9.5" ry="9.5"/></g></svg>